<?xml version="1.0" encoding="utf-8"?>
<!-- Generator: Adobe Illustrator 22.0.1, SVG Export Plug-In . SVG Version: 6.00 Build 0)  -->
<svg version="1.1" id="Слой_1" xmlns="http://www.w3.org/2000/svg" xmlns:xlink="http://www.w3.org/1999/xlink" x="0px" y="0px"
	 viewBox="0 0 25 16" style="enable-background:new 0 0 25 16;" xml:space="preserve">
<style type="text/css">
	.st0{fill:#0777ba;}
</style>
<path id="_" class="st0" d="M24.2,13c0.4-0.4,0.4-1,0-1.4l-11.1-11c-0.4-0.4-1-0.4-1.3,0c0,0,0,0,0,0l-11.1,11c-0.4,0.4-0.4,1,0,1.4
	l2.5,2.5c0.4,0.4,1,0.4,1.3,0c0,0,0,0,0,0l7.9-7.9l7.9,7.9c0.4,0.4,1,0.4,1.3,0c0,0,0,0,0,0L24.2,13z"/>
</svg>
